<svg width="1153" height="1119" viewBox="0 0 1153 1119" fill="none" xmlns="http://www.w3.org/2000/svg">
<path d="M396 62.5L594.5 34H657L843.5 92.5L1011 236.5L1106 483L1076 744.5L963.5 936L757.5 1047.5L555 1087L342.5 1047.5L128.5 855L49.5 680.5L55.5 446.5L170 224.5L396 62.5Z" fill="white"/>
<path d="M580.5 1119H716V1096H780V1075H824V1053H867.5V1032.5H913V1009.5H933.5V989H955V965.5H978.5V943.5H1000.5V921H1021V898.5H1043.5V857H1067V835H1087.5V789.5H1111V723.5H1132.5V591.5H1152.5V527.5H1132.5L1132.5 395H1111V330H1087.5V284.5H1067V264.5H1043.5V221H1021V198H1001.5V175H981.5V154H957.5V131.5H936.5V110L914.5 110V87.5H869.5L869.5 66.5L826.5 66.5V45L782.5 45V22.5L716.5 22.5V1.26326e-05L572 0V66.5L672 66.5L672 87.5L759.5 87.5V110L804 110V131.5H848.5V154H869.5V175L892.5 175V198H914.5V221H936.5V242.5H957.5V264.5L981.5 264.5V284.5H1001.5V330H1021V375H1043.5L1043.5 439H1067V680.5H1043.5V745.5H1021L1021 789.5H1001V835H978.5V857H957.5V879H935.5V901H913.5V922.5H891V943.5H868V965.5H847V989H804V1009.5L759.5 1009.5V1032.5H671.5V1053L580.5 1052.5V1119Z" fill="black"/>
<path d="M572 0L436.5 5.07489e-05V23.0001H372.5V44H328.5V66.0001H285V86.5001H239.5V109.5H219V130H197.5V153.5H174V175.5H152V198H131.5V220.5H109V262H85.5V284H65V329.5H41.5V395.5H20V527.5H0V591.5H20V724H41.5V789H65V834.5H85.5V854.5H109V898H131.5V921H151V944H171V965H195V987.5H216V1009H238V1031.5H283V1052.5H326V1074H370V1096.5H436V1119H580.5V1052.5H480.5V1031.5H393V1009H348.5V987.5H304V965H283V944H260V921H238V898H216V876.5H195V854.5H171V834.5H151V789H131.5V744H109V680H85.5V438.5H109V373.5H131.5V329.5H151.5V284H174V262H195V240H217V218H239V196.5H261.5V175.5H284.5V153.5H305.5V130H348.5V109.5H393V86.5001H481V66.0001L572 66.5V0Z" fill="black"/>
<path d="M579.363 997H686.587V978.789H737.232V962.162H772.05V944.743H806.473V928.511H842.478V910.3H858.7V894.069H875.714V875.462H894.31V858.043H911.719V840.228H927.941V822.413H945.746V789.554H964.342V772.135H980.564V736.109H999.16V683.852H1016.17V579.337H1032V528.663H1016.17L1016.17 423.753H999.16V372.287H980.564V336.261H964.342V320.425H945.746V285.983H927.941V267.772H912.51V249.561H896.684V232.934H877.692V215.119H861.074V198.096L843.665 198.096V180.281H808.056L808.056 163.653L774.029 163.653V146.63L739.211 146.63V128.815L686.983 128.815V111L572.637 111V163.653L651.769 163.653L651.769 180.281L721.01 180.281V198.096H756.224V215.119H791.438V232.934H808.056V249.561L826.256 249.561V267.772H843.665V285.983H861.074V303.006H877.692V320.425L896.684 320.425V336.261H912.51V372.287H927.941V407.917H945.746L945.746 458.591H964.342V649.805H945.746V701.271H927.941L927.941 736.109H912.115V772.135H894.31V789.554H877.692V806.973H860.283V824.392H842.874V841.416H825.069V858.043H806.869V875.462H790.251V894.069H756.224V910.3L721.01 910.3V928.511H651.374V944.743L579.363 944.347V997Z" fill="black"/>
<path d="M572.637 111L465.413 111V129.211H414.768V145.838H379.95V163.257H345.527V179.489H309.522V197.7H293.3V213.931H276.286V232.538H257.69V249.957H240.281V267.772H224.059V285.587H206.254V318.446H187.658V335.865H171.436V371.891H152.84V424.148H135.826V528.663H120V579.337H135.826V684.248H152.84V735.713H171.436V771.739H187.658V787.575H206.254V822.017H224.059V840.228H239.49V858.439H255.316V875.066H274.308V892.881H290.926V909.904H308.335V927.719H343.944V944.347H377.971V961.37H412.79V979.185H465.017V997H579.363V944.347H500.231V927.719H430.99V909.904H395.776V892.881H360.562V875.066H343.944V858.439H325.744V840.228H308.335V822.017H290.926V804.994H274.308V787.575H255.316V771.739H239.49V735.713H224.059V700.083H206.254V649.409H187.658V458.195H206.254V406.729H224.059V371.891H239.885V335.865H257.69V318.446H274.308V301.027H291.717V283.608H309.126V266.585H326.931V249.957H345.131V232.538H361.749V213.931H395.776V197.7H430.99V179.489H500.626V163.257L572.637 163.653V111Z" fill="black"/>
<path d="M304.912 616.57H323.549V589.461H332.868V570.824H369.295V625.889H359.977V645.373H350.658V653.845H332.868V663.163H295.593V653.845H276.956V644.526H267.637V625.889H258.319V607.251H249V514.912H258.319V486.956H267.637V475.943H276.956V467.471H286.275V459H342.187V467.471H350.658V475.943H359.13V486.956H369.295V542.021H332.868V514.065H323.549V495.427H304.912V514.065H291.781V607.251H304.912V616.57Z" fill="black"/>
<path fill-rule="evenodd" clip-rule="evenodd" d="M490.438 459H435.373V468.319H426.054V477.637H416.736V496.275H407.417V542.021H398.098V579.295H407.417V625.889H416.736V645.373H426.054V653.845H443.845V663.163H481.966V653.845H499.756V644.526H509.075V636.054H518.394V608.098H527.712V505.593H518.394V486.956H509.075V468.319H490.438V459ZM450.622 495.851H470.106V505.17H487.896V616.994H450.622V598.356H441.303V524.654H450.622V495.851Z" fill="black"/>
<path d="M556.516 459H611.58V496.275H602.262V626.736H611.58V663.163H556.516V626.736H565.834V496.275H556.516V459Z" fill="black"/>
<path d="M681.894 459H645.466V663.163H681.894V579.295H691.212V607.251H701.378V635.207H710.697V663.163H756.443V459H720.016L719.168 552.187H709.85V524.231H700.531V496.275H691.212V468.319H681.894V459Z" fill="black"/>
<path d="M903 459H792.023V496.275H827.604V487.38L865.725 487.803V497.122H856.407V514.912H847.088V525.078H837.769V542.868H828.451V561.505H819.132V570.824H810.661V588.614H801.342V608.946H791.176V626.736H782.705V663.163H903V626.736H828.451V607.251H837.769V589.461H847.935V579.295H856.407V561.505H865.725V542.868H875.044V533.549H884.363V514.912H893.681V496.275H903V459Z" fill="black"/>
</svg>
