<svg width="1113" height="1119" viewBox="0 0 1113 1119" fill="none" xmlns="http://www.w3.org/2000/svg">
<path d="M376 62.5L574.5 34H637L823.5 92.5L991 236.5L1086 483L1056 744.5L943.5 936L737.5 1047.5L535 1087L322.5 1047.5L108.5 855L29.5 680.5L35.5 446.5L150 224.5L376 62.5Z" fill="white"/>
<path d="M416 1119H696V1096H760V1075H804V1053H847.5V1032.5H893V1009.5H913.5V989H935V965.5H958.5V943.5H980.5V921H1001V898.5H1023.5V857H1047V835H1067.5V789.5H1091V723.5H1112.5L1112.5 395H1091V330H1067.5V284.5H1047V264.5H1023.5V221H1001V198H981.5V175H961.5V154H937.5V131.5H916.5V110H894.5V87.5H849.5L849.5 66.5H806.5V45L762.5 45V22.5L696.5 22.5V0L652 66.5L652 87.5H739.5V110L784 110V131.5H828.5V154H849.5V175H872.5V198H894.5V221H916.5V242.5H937.5V264.5L961.5 264.5V284.5H981.5V330H1001V375H1023.5L1023.5 439H1047V680.5H1023.5V745.5H1001L1001 789.5H981V835H958.5V857H937.5V879H915.5V901H893.5V922.5H871V943.5H848V965.5H827V989H784V1009.5H739.5V1032.5H651.5V1053L460.5 1052.5L416 1119Z" fill="black"/>
<path d="M416.5 3.8147e-05V23H352.5V44H308.5V66H265V86.5H219.5V109.5H199V130H177.5V153.5H154V175.5H132V198H111.5V220.5H89V262H65.5V284H45V329.5H21.5V395.5H0V724H21.5V789H45V834.5H65.5V854.5H89V898H111.5V921H131V944H151V965H175V987.5H196V1009H218V1031.5H263V1052.5H306V1074H350V1096.5H416V1119L460.5 1052.5V1031.5H373V1009H328.5V987.5H284V965H263V944H240V921H218V898H196V876.5H175V854.5H151V834.5H131V789H111.5V744H89V680H65.5V438.5H89V373.5H111.5V329.5H131.5V284H154V262H175V240H197V218H219V196.5H241.5V175.5H264.5V153.5H285.5V130H328.5V109.5H373V86.5H461V66L652 66.5L696.5 0L416.5 3.8147e-05Z" fill="black"/>
<path d="M445.017 997H666.587V978.789H717.232V962.162H752.05V944.743H786.473V928.511H822.478V910.3H838.7V894.069H855.714V875.462H874.31V858.043H891.719V840.228H907.941V822.413H925.746V789.554H944.342V772.135H960.564V736.109H979.16V683.852H996.174V579.337H1012V528.663H996.174L996.174 423.753H979.16V372.287H960.564V336.261H944.342V320.425H925.746V285.983H907.941V267.772H892.51V249.561H876.684V232.934H857.692V215.119H841.074V198.096H823.665V180.281H788.056L788.056 163.653H754.029V146.63L719.211 146.63V128.815L666.983 128.815V111L631.769 163.653L631.769 180.281L701.01 180.281V198.096H736.224V215.119H771.438V232.934H788.056V249.561L806.256 249.561V267.772H823.665V285.983H841.074V303.006H857.692V320.425H876.684V336.261H892.51V372.287H907.941V407.917H925.746L925.746 458.591H944.342V649.805H925.746V701.271H907.941L907.941 736.109H892.115V772.135H874.31V789.554H857.692V806.973H840.283V824.392H822.874V841.416H805.069V858.043H786.869V875.462H770.251V894.069H736.224V910.3L701.01 910.3V928.511H631.374V944.743L480.231 944.347L445.017 997Z" fill="black"/>
<path d="M666.983 111L445.413 111V129.211H394.768V145.838H359.95V163.257H325.527V179.489H289.522V197.7H273.3V213.931H256.286V232.538H237.69V249.957H220.281V267.772H204.059V285.587H186.254V318.446H167.658V335.865H151.436V371.891H132.84V424.148H115.826V528.663H100V579.337H115.826V684.248H132.84V735.713H151.436V771.739H167.658V787.575H186.254V822.017H204.059V840.228H219.49V858.439H235.316V875.066H254.308V892.881H270.926V909.904H288.335V927.719H323.944V944.347H357.971V961.37H392.79V979.185H445.017V997L480.231 944.347V927.719H410.99V909.904H375.776V892.881H340.562V875.066H323.944V858.439H305.744V840.228H288.335V822.017H270.926V804.994H254.308V787.575H235.316V771.739H219.49V735.713H204.059V700.083H186.254V649.409H167.658V458.195H186.254V406.729H204.059V371.891H219.885V335.865H237.69V318.446H254.308V301.027H271.717V283.608H289.126V266.584H306.931V249.957H325.131V232.538H341.749V213.931H375.776V197.7H410.99V179.489H480.626V163.257L631.769 163.653L666.983 111Z" fill="black"/>
<path d="M284.912 616.57H303.549V589.461H312.868V570.824H349.295V625.889H339.977V645.373H330.658V653.845H312.868V663.163H275.593V653.845H256.956V644.526H247.637V625.889H238.319V607.251H229V514.912H238.319V486.956H247.637V475.943H256.956V467.471H266.275V459H322.187V467.471H330.658V475.943H339.13V486.956H349.295V542.021H312.868V514.065H303.549V495.427H284.912V514.065H271.781V607.251H284.912V616.57Z" fill="black"/>
<path fill-rule="evenodd" clip-rule="evenodd" d="M470.438 459H415.373V468.319H406.054V477.637H396.736V496.275H387.417V542.021H378.098V579.295H387.417V625.889H396.736V645.373H406.054V653.845H423.845V663.163H461.966V653.845H479.756V644.526H489.075V636.054H498.394V608.098H507.712V505.593H498.394V486.956H489.075V468.319H470.438V459ZM430.622 495.851H450.106V505.17H467.896V616.994H430.622V598.356H421.303V524.654H430.622V495.851Z" fill="black"/>
<path d="M536.516 459H591.58V496.275H582.262V626.736H591.58V663.163H536.516V626.736H545.834V496.275H536.516V459Z" fill="black"/>
<path d="M661.894 459H625.466V663.163H661.894V579.295H671.212V607.251H681.378V635.207H690.697V663.163H736.443V459H700.016L699.168 552.187H689.85V524.231H680.531V496.275H671.212V468.319H661.894V459Z" fill="black"/>
<path d="M883 459H772.023V496.275H807.604V487.38L845.725 487.803V497.122H836.407V514.912H827.088V525.078H817.769V542.868H808.451V561.505H799.132V570.824H790.661V588.614H781.342V608.946H771.176V626.736H762.705V663.163H883V626.736H808.451V607.251H817.769V589.461H827.935V579.295H836.407V561.505H845.725V542.868H855.044V533.549H864.363V514.912H873.681V496.275H883V459Z" fill="black"/>
</svg>
